<svg width="500" height="500" viewBox="0 0 500 500" fill="none" xmlns="http://www.w3.org/2000/svg">
<g clip-path="url(#clip0_1310_1977)">
<circle cx="250" cy="250" r="250" fill="#615CF6"/>
<g clip-path="url(#clip1_1310_1977)">
<path d="M229.928 194.551C229.928 182.354 240.095 177.655 256.397 177.655C280.135 177.655 310.262 184.926 334 197.728V124.289C308.135 113.955 282.323 110.018 256.449 110.018C193.178 110.018 151.012 143.049 151.012 198.279C151.012 284.633 269.574 270.633 269.574 307.873C269.574 322.31 257.053 326.956 239.658 326.956C213.845 326.956 180.482 316.29 154.293 302.071V372.343C181.234 383.971 210.258 389.991 239.605 390.061C304.469 390.061 349.147 362.166 349.147 306.061C349.147 212.988 229.928 229.665 229.928 194.551Z" fill="white"/>
</g>
</g>
<defs>
<clipPath id="clip0_1310_1977">
<rect width="500" height="500" fill="white"/>
</clipPath>
<clipPath id="clip1_1310_1977">
<rect width="280" height="280" fill="white" transform="translate(110 110)"/>
</clipPath>
</defs>
</svg>
